<?xml version="1.0" standalone="no"?><!DOCTYPE svg PUBLIC "-//W3C//DTD SVG 1.1//EN" "http://www.w3.org/Graphics/SVG/1.1/DTD/svg11.dtd"><svg t="1753612914503" class="icon" viewBox="0 0 1024 1024" version="1.1" xmlns="http://www.w3.org/2000/svg" p-id="23734" xmlns:xlink="http://www.w3.org/1999/xlink" width="200" height="200"><path d="M161.2 699.8c44.2 50.6 175.3 16.9 228.9 0.5-29.3-19.4-45.3-39.7-53.7-56.9-12.7-25.7-19.3-80.6 29.3-74.5 208.9 29 257.3-59.4 309.4-155.6 42.9-78.7 87.8-161.8 201.5-206.4-109-187.5-422 23.6-476.1 152.9-5.1 14.8-17.6 25-33 25-18.9 0-34.8-16.4-34.8-35.9 0 0 2.9-52.4 18.7-120.2-23.5 22.4-43.8 49-60 78.7-28.4 52.1-41.4 112.1-26.8 166.2h-0.2c3.8 14.3-1.3 30.7-14.3 39.5-15.6 10.7-36.5 6.1-47.3-10.3-15.4-24.6-32.5-48.3-45.3-74.5-29.1 82.7-40.1 192.5 3.7 271.5z m193.3 260h357.2c11.9 0 20.9-9.8 20.9-21.8 0-12.1-9-21.3-20.9-21.3H354.5c-11.2 0-20.7 9.2-20.7 21.3 0.1 12.1 9.5 21.8 20.7 21.8zM102.7 738.4c-69.3-123.8-40.9-307.1 32.1-421.2 10.1-16.4 31.9-21.1 47.3-9.8 7.6 5.1 13 12.9 14.4 21.3h0.4c1.3 6.5 2.9 12.6 4.4 18.5 7.5-26.1 17.6-51.8 30.8-75.7 39.2-72.6 102.3-132.8 170.5-160.2 17.6-6.9 37.2 2.3 44.4 20.7 3.1 9.5 2.6 19-0.9 27.7-6.8 15.9-12.7 32-17.8 47.7 50.8-47.7 114.8-90 180.1-115.9C744 37.9 898.8 54 956.8 215.8c6.8 18.7-2.6 39.2-20.2 46.9l-3.1 1c-115.3 31.7-158.2 110.7-198.6 185.4C678.1 553.4 624.9 650.4 437 647c12.5 6.1 29.3 12.9 50.4 19.7 18 5.7 28.4 25.7 22.7 45.1-2.7 9.5-9 17-17.2 21.3-86.7 51.8-238.5 88.1-336.3 47.6-13.4 20.3-34.6 65.1-19.8 135.5v0.4h94.8c11.6 0 20.4 9.2 20.4 21.3 0 12-8.8 21.8-20.4 21.8H107.1c-17.6 1.8-33.6-10.6-37.8-28.7-18.8-93.7 11.2-159.8 33.4-192.6z" p-id="23735" fill="#46a74d"></path></svg>