<?xml version="1.0" standalone="no"?><!DOCTYPE svg PUBLIC "-//W3C//DTD SVG 1.1//EN" "http://www.w3.org/Graphics/SVG/1.1/DTD/svg11.dtd"><svg t="1754206305874" class="icon" viewBox="0 0 1024 1024" version="1.1" xmlns="http://www.w3.org/2000/svg" p-id="10518" xmlns:xlink="http://www.w3.org/1999/xlink" width="200" height="200"><path d="M888.4 237.2L563.3 49.5c-32.1-18.5-71.6-18.5-103.7 0L134.5 237.2C102.4 255.7 82.6 290 82.6 327v375.4c0 37.1 19.8 71.3 51.9 89.8L459.6 980c32.1 18.5 71.6 18.5 103.7 0l325.1-187.7c32.1-18.5 51.9-52.8 51.9-89.8V327.1c0-37.1-19.8-71.4-51.9-89.9z" fill="#ED92D0" p-id="10519"></path><path d="M289.9 882.4l169 97.6c32.1 18.5 71.6 18.5 103.7 0l325.1-187.7c32.1-18.5 51.9-52.8 51.9-89.8V327.1c0-37.1-19.8-71.3-51.9-89.8l-167.2-96.5" fill="#A84686" p-id="10520"></path><path d="M812.2 293.3L552.8 143.6c-25.6-14.8-57.2-14.8-82.8 0L210.7 293.3c-25.6 14.8-41.4 42.1-41.4 71.7v299.5c0 29.6 15.8 56.9 41.4 71.7l259.4 149.7c25.6 14.8 57.2 14.8 82.8 0l259.4-149.7c25.6-14.8 41.4-42.1 41.4-71.7V365c-0.2-29.6-15.9-56.9-41.5-71.7z" fill="#8D2967" p-id="10521"></path><path d="M786 312.6L549.2 175.9a75.622 75.622 0 0 0-75.6 0L236.9 312.6c-23.4 13.5-37.8 38.4-37.8 65.4v273.4c0 27 14.4 51.9 37.8 65.4l236.8 136.7c23.4 13.5 52.2 13.5 75.6 0L786 716.9c23.4-13.5 37.8-38.4 37.8-65.4V378.1c0-27-14.4-52-37.8-65.5z" fill="#F5CDEA" p-id="10522"></path><path d="M355.8 408.5v302.6h302.6v-77.4l-17.1 12.4h-0.1l-18.5 13.3c-3 2.1-7.2 2.2-10.3 0.3-3.1-1.9-5-5.8-4.4-9.5l3.5-22.5 9.3-60.7c0.5-3.3 1.7-5.8 3.3-8.6l34.4-59.7V313.9H450.4l-94.6 94.6z" fill="#CAFAFD" p-id="10523"></path><path d="M478.4 389.3h0.3c3.8-0.1 7.6 2.4 9 5.9s0.4 7.9-2.4 10.5l-56.7 56.7c-3.5 3.5-9.8 3.5-13.3 0L387 434.1c-3.6-3.5-3.7-9.9-0.1-13.4 3.5-3.6 10-3.6 13.4 0l21.7 21.7 50.1-50.1c1.4-1.5 3.4-2.5 5.5-2.8 0.3-0.1 0.5-0.2 0.8-0.2zM505.8 432.1h114.8c5-0.1 9.6 4.5 9.6 9.5s-4.6 9.5-9.6 9.5H507.1c-5 0.3-9.7-3.9-10-8.9-0.4-5 3.7-9.7 8.7-10.1zM710.4 446.3l-14.3 24.8 42.6 23.7L753 470zM478.4 483.9h0.3c3.8-0.1 7.6 2.4 9 5.9s0.4 7.9-2.4 10.5L428.6 557c-3.5 3.5-9.8 3.5-13.3 0L387 528.6c-3.6-3.5-3.7-9.9-0.1-13.4 3.5-3.6 10-3.6 13.4 0l21.7 21.7 50.1-50.1c1.4-1.5 3.4-2.5 5.5-2.8 0.3-0.1 0.5-0.1 0.8-0.1zM686.7 487.6l-42.4 73.6 42.4 23.5 0.1 0.1 42.4-73.6-42.3-23.5c-0.1 0-0.1-0.1-0.2-0.1zM505.8 526.7H611c5-0.1 9.6 4.5 9.6 9.5s-4.6 9.5-9.6 9.5H507.1c-5 0.3-9.7-3.9-10-8.9-0.4-5 3.7-9.7 8.7-10.1zM478.4 578.4h0.3c3.8-0.1 7.6 2.4 9 5.9s0.4 7.9-2.4 10.5l-56.7 56.7c-3.5 3.5-9.8 3.5-13.3 0L387 623.2c-3.6-3.5-3.7-9.9-0.1-13.4 3.5-3.6 10-3.6 13.4 0l21.7 21.7 50.1-50.1c1.4-1.5 3.4-2.5 5.5-2.8 0.3-0.1 0.5-0.1 0.8-0.2zM638 579.2l-7.9 51.5 43.5-31.6zM505.8 621.3h81.7c5-0.1 9.6 4.5 9.6 9.5s-4.6 9.5-9.6 9.5h-80.4c-5 0.3-9.7-3.9-10-8.9-0.4-5 3.7-9.8 8.7-10.1z" fill="#3B152E" p-id="10524"></path><path d="M772.3 262c0-19.2-15.6-34.8-34.8-34.8s-34.8 15.6-34.8 34.8c0 11.7 5.8 22 14.6 28.3-13.1 4.7-25.5 7.9-32.5 6.5-9.7-4.3-15.7-24.8-19.4-44.2 16.4-4.7 28.4-19.7 28.4-37.5 0-21.7-17.6-39.2-39.2-39.2-21.7 0-39.2 17.6-39.2 39.2 0 11.9 5.4 22.4 13.7 29.6-16.2 14-34.3 27.2-42.8 25.4-7.8-2.1-16.3-11.2-23.6-21.1 15.7-3.4 27.4-17.3 27.4-34 0-19.2-15.6-34.8-34.8-34.8-19.2 0-34.8 15.6-34.8 34.8 0 11 5.2 20.7 13.2 27.1l8.1 83.2s35.5 29.2 79.8 38.1c44.3 8.9 78.2 4.7 78.2 4.7l49.9-73.6c13.1-4.9 22.6-17.6 22.6-32.5z" fill="#F7D485" p-id="10525"></path><path d="M617.7 363.4c44.3 8.9 78.2 4.7 78.2 4.7l49.9-73.6c13.3-4.9 22.7-17.6 22.7-32.5 0-19.2-15.6-34.8-34.8-34.8s-34.8 15.6-34.8 34.8c0 11.7 5.8 22 14.6 28.3-13.1 4.7-25.5 7.9-32.5 6.5" fill="#F1B13D" p-id="10526"></path><path d="M794.5 649c-22.9 0-41.5 18.6-41.5 41.5 0-22.9-18.6-41.5-41.5-41.5 22.9 0 41.5-18.6 41.5-41.5 0 22.9 18.6 41.5 41.5 41.5zM342.5 358.1c-24.9 0-45.2 20.2-45.2 45.2 0-24.9-20.2-45.2-45.2-45.2 24.9 0 45.2-20.2 45.2-45.2 0 24.9 20.3 45.2 45.2 45.2z" fill="#A14687" p-id="10527"></path><path d="M264.3 607.5c-33 0-59.8 26.8-59.8 59.8 0-33-26.8-59.8-59.8-59.8 33 0 59.8-26.8 59.8-59.8 0 33 26.8 59.8 59.8 59.8zM928 369c-33 0-59.8 26.8-59.8 59.8 0-33-26.8-59.8-59.8-59.8 33 0 59.8-26.8 59.8-59.8 0 33.1 26.8 59.8 59.8 59.8z" fill="#FCF5FA" p-id="10528"></path></svg>